<?xml version="1.0" encoding="UTF-8"?>
<svg id="Layer_1" xmlns="http://www.w3.org/2000/svg" version="1.1" viewBox="0 0 685.56 685.56">
  <!-- Generator: Adobe Illustrator 29.8.3, SVG Export Plug-In . SVG Version: 2.1.1 Build 3)  -->
  <defs>
    <style>
      .st0 {
        fill: #fff;
      }

      .st1 {
        fill: #112d56;
      }

      .st2 {
        isolation: isolate;
      }
    </style>
  </defs>
  <rect class="st1" x="-12.68" y="-9.49" width="710.91" height="704.54"/>
  <g>
    <g>
      <path class="st0" d="M293.36,472.03c1.79-6.95,18.53-32.68,23.28-40.41,19.35,1.46,53.78.47,74.33.49l150.04-.32c5.84,9.54,19.22,32.65,25.37,40.5-30.91.42-62.46-.23-93.5-.25h-179.52v-.02Z"/>
      <path class="st0" d="M244.54,256.42c5.82,5.71,21.38,30.28,25.91,37.9l-76.17,119.7c-10.94,17.12-25.69,42.41-37.73,57.81-13.15,1.32-36.58.74-50.11.19,6.46-10.48,14.17-21.43,20.89-31.93l50.15-78.87c22.53-35.26,43.55-70.02,67.04-104.81h.02Z"/>
      <path class="st0" d="M336.84,111.13c12.21,20.39,26.25,41.15,39.08,61.36l97.61,153.58c-14.19.47-35.61.49-49.7-.12-21.01-35.04-45.68-71.74-68.02-106.25-14.21-21.95-29.42-48.02-44.12-69.09,6.58-11.42,17.4-28.36,25.12-39.48h.02Z"/>
      <path class="st0" d="M351.03,377.73c51.37-.23,103.55.4,154.73-.19,5.9,8.57,21.01,31.56,25.55,40.57-67.81,0-138.76.86-206.33-.07,8.59-11.85,18.23-27.84,26.02-40.32h0l.02.02Z"/>
      <path class="st0" d="M279.59,308.6c6.2,9.82,17.93,29.43,25.1,37.81-9.34,15.42-19.99,31.72-29.67,47.12-16.23,25.83-32.6,52.9-49.61,78.2-16.14.84-33.11-.25-49.57.07,15.22-25.39,31.27-49.65,47.39-74.55,18.45-28.5,36.88-61.15,56.35-88.65h0Z"/>
      <path class="st0" d="M278.87,203.81c4.21-9.62,17.66-29.33,24.05-39.13,22.89,35.26,45.53,70.65,67.93,106.18,8.29,13.1,27.06,44.38,36.06,54.83-16.93.88-33.97-.12-51,.09-3.95-5.88-7.95-12.17-11.63-18.21-21.19-34.74-45.06-68.62-65.41-103.77h0v.02Z"/>
      <path class="st0" d="M302.96,378.18c14.13-.98,33.52-.47,48.06-.46-7.82,12.49-17.46,28.45-26.02,40.32-2.29,3.64-6.56,10.03-8.36,13.58-4.75,7.73-21.5,33.46-23.28,40.41l-49.96-.07c19.15-28.92,42.48-64.33,59.58-93.76h0l-.02-.02Z"/>
      <path class="st0" d="M269.22,217.23c5.15,10.24,12.97,20.39,19.05,30.26,12.63,20.44,27.87,41.83,39.67,62.57-2.93,6.64-7.82,11.99-11.78,18-3.93,5.94-7.74,12.28-11.46,18.33-7.18-8.38-18.9-27.98-25.1-37.81-1.95-5.09-6.09-8.62-9.13-14.26-4.53-7.62-20.09-32.19-25.91-37.9,6.28-9.96,18.41-31.24,24.69-39.2h-.02Z"/>
      <path class="st0" d="M406.91,325.71c5.37.18,11.95-.02,16.93.25,14.09.61,35.49.6,49.7.12,8.12,12.77,15.5,24.18,22.23,37.65-10.54-.61-26.63-.23-37.43-.23l-78.39.46c-7.78-12.84-15.78-25.55-24.03-38.15,17.02-.23,34.07.79,51-.09h0v-.02Z"/>
    </g>
    <g>
      <g class="st2">
        <g class="st2">
          <path class="st0" d="M170.03,567.63c0,12.38-10.25,20.67-25.23,20.67h-38.36v-75.37h36.75c14.63,0,24.31,7.97,24.31,19.92,0,6.89-3.23,12.38-9.45,16.37,7.37,3.66,11.98,10.44,11.98,18.41ZM138.58,526.61h-13.25v17.01h13.25c6.45,0,10.48-3.34,10.48-8.51s-3.92-8.51-10.48-8.51ZM139.73,574.63c7.14,0,11.29-3.34,11.29-8.94s-4.15-8.83-11.29-8.83h-14.4v17.77h14.4Z"/>
        </g>
      </g>
      <g class="st2">
        <g class="st2">
          <path class="st0" d="M243.19,512.93v17.01h-23.5v58.36h-19.82v-58.36h-23.39v-17.01h66.7Z"/>
        </g>
      </g>
      <g class="st2">
        <g class="st2">
          <path class="st0" d="M305.97,512.93h19.01v75.37h-16.13l-35.83-44.47v44.47h-19.01v-75.37h16.01l35.94,44.58v-44.58Z"/>
        </g>
      </g>
    </g>
    <g class="st2">
      <path class="st0" d="M377.64,544.28h-4.64c-.92,0-1.58-.35-2-1.07l-7.46-10.77c-.25-.37-.53-.64-.82-.8-.3-.16-.74-.24-1.33-.24h-2.89v12.88h-5.19v-31.97h9.41c2.1,0,3.91.21,5.43.64s2.76,1.04,3.74,1.83c.98.79,1.7,1.74,2.16,2.85s.7,2.35.7,3.71c0,1.11-.17,2.15-.5,3.11-.33.96-.81,1.84-1.44,2.62-.63.78-1.4,1.46-2.32,2.04s-1.96,1.03-3.13,1.35c.64.39,1.18.93,1.64,1.62l8.64,12.19ZM362.59,527.63c1.18,0,2.22-.14,3.11-.43.89-.29,1.63-.69,2.22-1.21.59-.52,1.04-1.14,1.33-1.85.3-.72.44-1.51.44-2.39,0-1.75-.58-3.08-1.73-4-1.15-.92-2.9-1.38-5.24-1.38h-4.22v11.25h4.08Z"/>
      <path class="st0" d="M382.61,533.33c.06,1.29.26,2.4.6,3.34.34.94.79,1.72,1.37,2.34.57.62,1.25,1.08,2.04,1.39.79.3,1.68.45,2.65.45s1.74-.11,2.42-.32,1.27-.45,1.78-.71c.5-.26.93-.5,1.29-.71.35-.21.68-.32.98-.32.38,0,.68.15.89.44l1.35,1.75c-.56.67-1.2,1.23-1.91,1.69s-1.46.83-2.26,1.12c-.8.29-1.62.5-2.46.62-.84.13-1.66.19-2.46.19-1.57,0-3.02-.26-4.36-.79-1.34-.53-2.5-1.3-3.49-2.32-.98-1.02-1.75-2.29-2.31-3.8s-.83-3.25-.83-5.22c0-1.57.25-3.03.74-4.4.5-1.36,1.21-2.54,2.13-3.55.92-1.01,2.05-1.8,3.37-2.39s2.82-.88,4.5-.88c1.39,0,2.68.23,3.86.68,1.18.45,2.2,1.11,3.06,1.99.86.87,1.53,1.94,2.01,3.21.48,1.27.72,2.7.72,4.32,0,.74-.08,1.24-.24,1.49-.16.25-.46.38-.89.38h-14.54ZM394,530.4c0-.8-.11-1.54-.34-2.23-.23-.69-.57-1.29-1.01-1.8s-1-.91-1.65-1.2c-.66-.29-1.42-.43-2.28-.43-1.73,0-3.09.5-4.08,1.49s-1.62,2.38-1.89,4.17h11.25Z"/>
      <path class="st0" d="M402.17,524.79c2.56-2.38,5.61-3.57,9.15-3.57,1.3,0,2.46.21,3.47.63,1.01.42,1.86,1.02,2.55,1.79.69.77,1.21,1.68,1.58,2.74.36,1.06.54,2.23.54,3.52v14.38h-2.13c-.46,0-.81-.07-1.04-.21-.24-.14-.44-.42-.6-.85l-.47-1.84c-.58.52-1.15.98-1.71,1.39-.56.41-1.14.75-1.74,1.03s-1.24.49-1.93.63c-.69.14-1.45.21-2.28.21-.92,0-1.77-.13-2.56-.38-.79-.25-1.48-.63-2.05-1.14-.58-.51-1.03-1.14-1.37-1.9-.33-.76-.5-1.64-.5-2.66,0-.87.23-1.72.7-2.55.47-.83,1.24-1.57,2.31-2.23s2.49-1.2,4.24-1.63c1.75-.43,3.92-.67,6.49-.73v-1.51c0-1.63-.35-2.84-1.04-3.64-.7-.8-1.72-1.2-3.06-1.2-.92,0-1.69.12-2.31.34-.62.23-1.16.48-1.62.74-.46.27-.87.51-1.22.74-.35.23-.73.34-1.13.34-.33,0-.6-.08-.83-.25-.23-.17-.42-.38-.57-.63l-.87-1.55ZM414.82,534.38c-1.7.06-3.14.2-4.31.41-1.17.22-2.12.49-2.84.82s-1.25.73-1.56,1.19c-.32.46-.48.96-.48,1.51s.09.99.26,1.37c.17.38.41.69.71.93.3.24.66.42,1.07.53.41.11.85.17,1.34.17,1.24,0,2.31-.23,3.21-.7.89-.47,1.76-1.14,2.61-2.03v-4.2Z"/>
      <path class="st0" d="M429.9,511.42v32.85h-4.77v-32.85h4.77Z"/>
      <path class="st0" d="M467.7,540.08l-.02,4.2h-19.93v-31.97h19.93v4.2h-14.72v9.63h11.77v4.06h-11.77v9.88h14.74Z"/>
      <path class="st0" d="M485.61,525.74c-.12.21-.25.35-.4.44-.15.09-.33.13-.55.13-.25,0-.53-.08-.82-.23-.3-.16-.64-.33-1.04-.52-.4-.19-.87-.37-1.41-.52-.54-.16-1.17-.23-1.9-.23-.59,0-1.13.07-1.61.21-.48.14-.89.34-1.22.6-.33.26-.59.56-.77.91-.18.35-.27.72-.27,1.12,0,.53.16.98.49,1.33s.76.66,1.29.92c.53.26,1.14.49,1.82.7s1.38.43,2.09.67c.71.24,1.41.51,2.09.82.68.31,1.29.69,1.82,1.14s.96,1,1.29,1.64c.32.64.49,1.42.49,2.34,0,1.07-.19,2.05-.58,2.95s-.95,1.69-1.69,2.35c-.74.67-1.66,1.18-2.76,1.55s-2.36.55-3.78.55c-.78,0-1.54-.07-2.28-.21-.73-.14-1.43-.33-2.09-.58-.66-.24-1.27-.54-1.84-.88-.57-.34-1.08-.71-1.52-1.11l1.11-1.82c.13-.22.3-.4.5-.52.2-.13.45-.19.74-.19.31,0,.62.1.92.3.3.2.66.42,1.07.65.41.24.9.46,1.48.66.58.2,1.3.3,2.15.3.71,0,1.32-.09,1.84-.26.52-.17.95-.4,1.29-.7.34-.3.59-.63.75-1.01.16-.38.24-.78.24-1.21,0-.58-.16-1.05-.49-1.42-.33-.37-.76-.69-1.3-.95s-1.15-.5-1.84-.71c-.69-.21-1.39-.43-2.1-.67-.71-.24-1.41-.51-2.1-.82-.69-.31-1.3-.71-1.84-1.19-.54-.48-.97-1.07-1.3-1.75-.33-.69-.49-1.53-.49-2.52,0-.9.18-1.76.54-2.58.36-.81.89-1.53,1.6-2.15.7-.62,1.57-1.11,2.6-1.48s2.22-.54,3.56-.54c1.52,0,2.91.24,4.15.73,1.24.49,2.29,1.15,3.13,2l-1.07,1.73Z"/>
      <path class="st0" d="M498.73,544.63c-1.88,0-3.33-.53-4.34-1.59-1.01-1.06-1.52-2.55-1.52-4.47v-13.19h-2.49c-.27,0-.5-.08-.69-.25-.19-.17-.29-.43-.29-.77v-1.93l3.66-.53,1.04-6.55c.07-.25.2-.45.38-.61.18-.16.41-.23.71-.23h2.44v7.44h6.28v3.44h-6.28v12.85c0,.81.2,1.44.6,1.87.4.43.93.64,1.6.64.37,0,.69-.05.95-.14.27-.1.5-.2.69-.31s.36-.21.5-.31c.14-.1.28-.14.41-.14.27,0,.48.15.64.44l1.42,2.33c-.74.65-1.61,1.15-2.62,1.5-1.01.35-2.04.52-3.11.52Z"/>
      <path class="st0" d="M507.15,524.79c2.56-2.38,5.61-3.57,9.15-3.57,1.3,0,2.46.21,3.47.63,1.01.42,1.86,1.02,2.55,1.79.69.77,1.21,1.68,1.58,2.74.36,1.06.54,2.23.54,3.52v14.38h-2.13c-.46,0-.81-.07-1.04-.21-.24-.14-.44-.42-.6-.85l-.47-1.84c-.58.52-1.15.98-1.71,1.39-.56.41-1.14.75-1.74,1.03s-1.24.49-1.93.63c-.69.14-1.45.21-2.28.21-.92,0-1.77-.13-2.56-.38-.79-.25-1.48-.63-2.05-1.14-.58-.51-1.03-1.14-1.37-1.9-.33-.76-.5-1.64-.5-2.66,0-.87.23-1.72.7-2.55.47-.83,1.24-1.57,2.31-2.23s2.49-1.2,4.24-1.63c1.75-.43,3.92-.67,6.49-.73v-1.51c0-1.63-.35-2.84-1.04-3.64-.7-.8-1.72-1.2-3.06-1.2-.92,0-1.69.12-2.31.34-.62.23-1.16.48-1.62.74-.46.27-.87.51-1.22.74-.35.23-.73.34-1.13.34-.33,0-.6-.08-.83-.25-.23-.17-.42-.38-.57-.63l-.87-1.55ZM519.8,534.38c-1.7.06-3.14.2-4.31.41-1.17.22-2.12.49-2.84.82s-1.25.73-1.56,1.19c-.32.46-.48.96-.48,1.51s.09.99.26,1.37c.17.38.41.69.71.93.3.24.66.42,1.07.53.41.11.85.17,1.34.17,1.24,0,2.31-.23,3.21-.7.89-.47,1.76-1.14,2.61-2.03v-4.2Z"/>
      <path class="st0" d="M536.96,544.63c-1.88,0-3.33-.53-4.34-1.59-1.01-1.06-1.52-2.55-1.52-4.47v-13.19h-2.49c-.27,0-.5-.08-.69-.25-.19-.17-.29-.43-.29-.77v-1.93l3.66-.53,1.04-6.55c.07-.25.2-.45.38-.61.18-.16.41-.23.71-.23h2.44v7.44h6.28v3.44h-6.28v12.85c0,.81.2,1.44.6,1.87.4.43.93.64,1.6.64.37,0,.69-.05.95-.14.27-.1.5-.2.69-.31s.36-.21.5-.31c.14-.1.28-.14.41-.14.27,0,.48.15.64.44l1.42,2.33c-.74.65-1.61,1.15-2.62,1.5-1.01.35-2.04.52-3.11.52Z"/>
      <path class="st0" d="M549.24,533.33c.06,1.29.26,2.4.6,3.34.34.94.79,1.72,1.37,2.34.57.62,1.25,1.08,2.04,1.39.79.3,1.68.45,2.65.45s1.74-.11,2.42-.32,1.27-.45,1.78-.71c.5-.26.93-.5,1.29-.71.35-.21.68-.32.98-.32.38,0,.68.15.89.44l1.35,1.75c-.56.67-1.2,1.23-1.91,1.69s-1.46.83-2.26,1.12c-.8.29-1.62.5-2.46.62-.84.13-1.66.19-2.46.19-1.57,0-3.02-.26-4.36-.79-1.34-.53-2.5-1.3-3.49-2.32-.98-1.02-1.75-2.29-2.31-3.8s-.83-3.25-.83-5.22c0-1.57.25-3.03.74-4.4.5-1.36,1.21-2.54,2.13-3.55.92-1.01,2.05-1.8,3.37-2.39s2.82-.88,4.5-.88c1.39,0,2.68.23,3.86.68,1.18.45,2.2,1.11,3.06,1.99.86.87,1.53,1.94,2.01,3.21.48,1.27.72,2.7.72,4.32,0,.74-.08,1.24-.24,1.49-.16.25-.46.38-.89.38h-14.54ZM560.62,530.4c0-.8-.11-1.54-.34-2.23-.23-.69-.57-1.29-1.01-1.8s-1-.91-1.65-1.2c-.66-.29-1.42-.43-2.28-.43-1.73,0-3.09.5-4.08,1.49s-1.62,2.38-1.89,4.17h11.25Z"/>
      <path class="st0" d="M370.03,562.95c-.16.27-.33.46-.51.59-.18.13-.4.19-.67.19-.28,0-.6-.12-.94-.36-.35-.24-.78-.5-1.29-.79-.51-.29-1.11-.56-1.81-.8-.7-.24-1.52-.37-2.49-.37-.89,0-1.67.11-2.34.33-.67.22-1.24.53-1.7.93s-.8.87-1.03,1.41c-.23.54-.34,1.13-.34,1.76,0,.81.21,1.49.64,2.03.43.54.99,1,1.7,1.39s1.51.72,2.41,1.01c.9.29,1.82.6,2.76.92.94.33,1.86.7,2.76,1.11s1.71.94,2.41,1.58c.7.64,1.27,1.41,1.7,2.33.43.92.64,2.04.64,3.35,0,1.42-.24,2.75-.73,4-.49,1.24-1.2,2.33-2.12,3.25s-2.06,1.65-3.42,2.19c-1.35.53-2.9.8-4.63.8-1.02,0-2.02-.1-2.99-.3-.97-.2-1.89-.48-2.77-.84-.88-.36-1.71-.8-2.48-1.32-.77-.52-1.46-1.09-2.06-1.73l1.51-2.49c.13-.21.3-.37.51-.49s.44-.18.69-.18c.34,0,.72.16,1.13.48.41.32.91.67,1.5,1.04.58.38,1.29.73,2.12,1.04.83.32,1.82.48,2.97.48,1.88,0,3.33-.46,4.36-1.38,1.03-.92,1.54-2.18,1.54-3.8,0-.9-.21-1.64-.64-2.21-.43-.57-1-1.05-1.7-1.43-.7-.38-1.51-.71-2.41-.98-.9-.27-1.82-.55-2.75-.85-.93-.3-1.85-.66-2.75-1.07-.9-.41-1.71-.94-2.41-1.6-.7-.66-1.27-1.47-1.7-2.44-.43-.97-.64-2.18-.64-3.63,0-1.15.22-2.27.68-3.35.45-1.08,1.11-2.04,1.97-2.87.87-.84,1.94-1.51,3.21-2.01,1.27-.5,2.72-.75,4.35-.75,1.83,0,3.52.29,5.05.87,1.53.58,2.85,1.4,3.96,2.46l-1.27,2.49Z"/>
      <path class="st0" d="M380.02,578.51c.06,1.29.26,2.4.6,3.34.34.94.79,1.72,1.37,2.34.57.62,1.25,1.08,2.04,1.39.79.3,1.68.45,2.65.45s1.74-.11,2.42-.32,1.27-.45,1.78-.71c.5-.26.93-.5,1.29-.71.35-.21.68-.32.98-.32.38,0,.68.15.89.44l1.35,1.75c-.56.67-1.2,1.23-1.91,1.69s-1.46.83-2.26,1.12c-.8.29-1.62.5-2.46.62-.84.13-1.66.19-2.46.19-1.57,0-3.02-.26-4.36-.79-1.34-.53-2.5-1.3-3.49-2.32-.98-1.02-1.75-2.29-2.31-3.8s-.83-3.25-.83-5.22c0-1.57.25-3.03.74-4.4.5-1.36,1.21-2.54,2.13-3.55.92-1.01,2.05-1.8,3.37-2.39s2.82-.88,4.5-.88c1.39,0,2.68.23,3.86.68,1.18.45,2.2,1.11,3.06,1.99.86.87,1.53,1.94,2.01,3.21.48,1.27.72,2.7.72,4.32,0,.74-.08,1.24-.24,1.49-.16.25-.46.38-.89.38h-14.54ZM391.4,575.58c0-.8-.11-1.54-.34-2.23-.23-.69-.57-1.29-1.01-1.8s-1-.91-1.65-1.2c-.66-.29-1.42-.43-2.28-.43-1.73,0-3.09.5-4.08,1.49s-1.62,2.38-1.89,4.17h11.25Z"/>
      <path class="st0" d="M404.63,571.01c.71-1.43,1.57-2.56,2.58-3.39,1.01-.82,2.21-1.23,3.62-1.23.49,0,.95.06,1.38.17.43.11.81.28,1.15.5l-.33,3.6c-.06.25-.15.43-.28.52-.13.1-.29.14-.5.14-.22,0-.54-.04-.95-.12-.41-.08-.85-.12-1.31-.12-.67,0-1.25.1-1.77.29-.51.19-.97.47-1.38.84-.41.37-.77.82-1.08,1.35-.31.53-.6,1.14-.87,1.82v14.07h-4.77v-22.64h2.77c.5,0,.85.09,1.04.28s.33.51.4.97l.29,2.95Z"/>
      <path class="st0" d="M436.44,566.81l-9.1,22.64h-4.31l-9.1-22.64h3.93c.37,0,.68.09.92.28s.4.4.48.66l5.02,13.19c.21.62.39,1.24.55,1.84.16.61.3,1.22.42,1.84.12-.62.26-1.23.43-1.83.17-.6.36-1.22.57-1.85l5.11-13.19c.09-.27.25-.49.49-.67.24-.18.53-.27.87-.27h3.73Z"/>
      <path class="st0" d="M445.48,559.98c0,.43-.09.84-.26,1.22-.17.38-.4.72-.7,1.01s-.64.52-1.03.69c-.39.17-.81.26-1.25.26s-.83-.09-1.21-.26c-.38-.17-.71-.4-.99-.69s-.51-.63-.68-1.01c-.17-.38-.25-.79-.25-1.22s.09-.86.25-1.24c.17-.38.4-.72.68-1.01s.61-.52.99-.69c.38-.17.78-.26,1.21-.26s.86.09,1.25.26c.39.17.74.4,1.03.69s.53.63.7,1.01c.17.38.26.8.26,1.24ZM444.68,566.81v22.64h-4.77v-22.64h4.77Z"/>
      <path class="st0" d="M466.7,571.26c-.15.19-.29.34-.42.44-.13.1-.33.16-.58.16s-.51-.09-.79-.27-.6-.37-.98-.59c-.38-.21-.83-.41-1.37-.59s-1.2-.27-2-.27c-1.04,0-1.94.19-2.72.55-.78.37-1.43.9-1.95,1.59-.53.69-.92,1.52-1.18,2.51-.26.98-.39,2.09-.39,3.32s.14,2.41.42,3.4c.28.99.68,1.83,1.21,2.51.52.68,1.16,1.2,1.91,1.55.75.35,1.59.53,2.52.53s1.67-.11,2.24-.33c.58-.22,1.06-.47,1.44-.73s.71-.51.99-.73c.27-.22.57-.33.88-.33.38,0,.68.15.89.44l1.35,1.75c-.55.67-1.15,1.23-1.82,1.69s-1.37.83-2.11,1.12c-.74.29-1.51.5-2.31.62-.8.13-1.61.19-2.42.19-1.41,0-2.72-.26-3.94-.79-1.22-.53-2.29-1.29-3.2-2.29-.91-1-1.63-2.22-2.15-3.66-.53-1.44-.79-3.09-.79-4.94,0-1.67.24-3.22.71-4.65s1.17-2.66,2.08-3.7c.91-1.04,2.04-1.85,3.39-2.43,1.35-.58,2.9-.88,4.66-.88,1.64,0,3.09.27,4.34.8s2.36,1.29,3.34,2.26l-1.27,1.73Z"/>
      <path class="st0" d="M475.07,578.51c.06,1.29.26,2.4.6,3.34.34.94.79,1.72,1.37,2.34.57.62,1.25,1.08,2.04,1.39.79.3,1.68.45,2.65.45s1.74-.11,2.42-.32,1.27-.45,1.78-.71c.5-.26.93-.5,1.29-.71.35-.21.68-.32.98-.32.38,0,.68.15.89.44l1.35,1.75c-.56.67-1.2,1.23-1.91,1.69s-1.46.83-2.26,1.12c-.8.29-1.62.5-2.46.62-.84.13-1.66.19-2.46.19-1.57,0-3.02-.26-4.36-.79-1.34-.53-2.5-1.3-3.49-2.32-.98-1.02-1.75-2.29-2.31-3.8s-.83-3.25-.83-5.22c0-1.57.25-3.03.74-4.4.5-1.36,1.21-2.54,2.13-3.55.92-1.01,2.05-1.8,3.37-2.39s2.82-.88,4.5-.88c1.39,0,2.68.23,3.86.68,1.18.45,2.2,1.11,3.06,1.99.86.87,1.53,1.94,2.01,3.21.48,1.27.72,2.7.72,4.32,0,.74-.08,1.24-.24,1.49-.16.25-.46.38-.89.38h-14.54ZM486.46,575.58c0-.8-.11-1.54-.34-2.23-.23-.69-.57-1.29-1.01-1.8s-1-.91-1.65-1.2c-.66-.29-1.42-.43-2.28-.43-1.73,0-3.09.5-4.08,1.49s-1.62,2.38-1.89,4.17h11.25Z"/>
      <path class="st0" d="M508.7,570.92c-.12.21-.25.35-.4.44-.15.09-.33.13-.55.13-.25,0-.53-.08-.82-.23-.3-.16-.64-.33-1.04-.52-.4-.19-.87-.37-1.41-.52-.54-.16-1.17-.23-1.9-.23-.59,0-1.13.07-1.61.21-.48.14-.89.34-1.22.6-.33.26-.59.56-.77.91-.18.35-.27.72-.27,1.12,0,.53.16.98.49,1.33s.76.66,1.29.92c.53.26,1.14.49,1.82.7s1.38.43,2.09.67c.71.24,1.41.51,2.09.82.68.31,1.29.69,1.82,1.14s.96,1,1.29,1.64c.32.64.49,1.42.49,2.34,0,1.07-.19,2.05-.58,2.95s-.95,1.69-1.69,2.35c-.74.67-1.66,1.18-2.76,1.55s-2.36.55-3.78.55c-.78,0-1.54-.07-2.28-.21-.73-.14-1.43-.33-2.09-.58-.66-.24-1.27-.54-1.84-.88-.57-.34-1.08-.71-1.52-1.11l1.11-1.82c.13-.22.3-.4.5-.52.2-.13.45-.19.74-.19.31,0,.62.1.92.3.3.2.66.42,1.07.65.41.24.9.46,1.48.66.58.2,1.3.3,2.15.3.71,0,1.32-.09,1.84-.26.52-.17.95-.4,1.29-.7.34-.3.59-.63.75-1.01.16-.38.24-.78.24-1.21,0-.58-.16-1.05-.49-1.42-.33-.37-.76-.69-1.3-.95s-1.15-.5-1.84-.71c-.69-.21-1.39-.43-2.1-.67-.71-.24-1.41-.51-2.1-.82-.69-.31-1.3-.71-1.84-1.19-.54-.48-.97-1.07-1.3-1.75-.33-.69-.49-1.53-.49-2.52,0-.9.18-1.76.54-2.58.36-.81.89-1.53,1.6-2.15.7-.62,1.57-1.11,2.6-1.48s2.22-.54,3.56-.54c1.52,0,2.91.24,4.15.73,1.24.49,2.29,1.15,3.13,2l-1.07,1.73Z"/>
    </g>
  </g>
</svg>