<?xml version="1.0" encoding="UTF-8"?>
<svg id="Layer_1" xmlns="http://www.w3.org/2000/svg" version="1.1" viewBox="0 0 685.56 223.36">
  <!-- Generator: Adobe Illustrator 29.8.3, SVG Export Plug-In . SVG Version: 2.1.1 Build 3)  -->
  <defs>
    <style>
      .st0 {
        fill: #7b7b7b;
      }

      .st1 {
        fill: #1e5685;
      }

      .st2 {
        isolation: isolate;
      }

      .st3 {
        fill: #337daf;
      }

      .st4 {
        fill: #0d3157;
      }
    </style>
  </defs>
  <g>
    <path class="st4" d="M103.36,209.91c.95-3.96,9.86-18.61,12.39-23.01,10.3.83,28.62.27,39.56.28l79.85-.18c3.11,5.43,10.23,18.59,13.5,23.06-16.45.24-33.24-.13-49.76-.14h-95.54Z"/>
    <path class="st4" d="M77.38,87.14c3.1,3.25,11.38,17.24,13.79,21.58l-40.54,68.16c-5.82,9.75-13.67,24.15-20.08,32.92-7,.75-19.47.42-26.67.11,3.44-5.97,7.54-12.2,11.12-18.18l26.69-44.91c11.99-20.08,23.18-39.87,35.68-59.68,0,0,.01,0,.01,0Z"/>
    <path class="st4" d="M126.5,4.41c6.5,11.61,13.97,23.43,20.8,34.94l51.95,87.45c-7.55.27-18.95.28-26.45-.07-11.18-19.95-24.31-40.85-36.2-60.5-7.56-12.5-15.66-27.34-23.48-39.34,3.5-6.5,9.26-16.15,13.37-22.48h.01,0Z"/>
    <path class="st3" d="M134.05,156.21c27.34-.13,55.11.23,82.35-.11,3.14,4.88,11.18,17.97,13.6,23.1-36.09,0-73.85.49-109.81-.04,4.57-6.75,9.7-15.85,13.85-22.96h0Z"/>
    <path class="st3" d="M96.03,116.85c3.3,5.59,9.54,16.76,13.36,21.53-4.97,8.78-10.64,18.06-15.79,26.83-8.64,14.71-17.35,30.12-26.4,44.53-8.59.48-17.62-.14-26.38.04,8.1-14.46,16.64-28.27,25.22-42.45,9.82-16.23,19.63-34.82,29.99-50.48h0Z"/>
    <path class="st3" d="M95.65,57.18c2.24-5.48,9.4-16.7,12.8-22.28,12.18,20.08,24.23,40.23,36.15,60.46,4.41,7.46,14.4,25.27,19.19,31.22-9.01.5-18.08-.07-27.14.05-2.1-3.35-4.23-6.93-6.19-10.37-11.28-19.78-23.98-39.07-34.81-59.09h0Z"/>
    <path class="st1" d="M108.47,156.47c7.52-.56,17.84-.27,25.58-.26-4.16,7.11-9.29,16.2-13.85,22.96-1.22,2.07-3.49,5.71-4.45,7.73-2.53,4.4-11.44,19.05-12.39,23.01l-26.59-.04c10.19-16.47,22.61-36.63,31.71-53.39h-.01Z"/>
    <path class="st1" d="M90.51,64.82c2.74,5.83,6.9,11.61,10.14,17.23,6.72,11.64,14.83,23.82,21.11,35.63-1.56,3.78-4.16,6.83-6.27,10.25-2.09,3.38-4.12,6.99-6.1,10.44-3.82-4.77-10.06-15.93-13.36-21.53-1.04-2.9-3.24-4.91-4.86-8.12-2.41-4.34-10.69-18.33-13.79-21.58,3.34-5.67,9.8-17.79,13.14-22.32,0,0-.01,0-.01,0Z"/>
    <path class="st1" d="M163.79,126.59c2.86.1,6.36-.01,9.01.14,7.5.35,18.89.34,26.45.07,4.32,7.27,8.25,13.77,11.83,21.44-5.61-.35-14.17-.13-19.92-.13l-41.72.26c-4.14-7.31-8.4-14.55-12.79-21.72,9.06-.13,18.13.45,27.14-.05h0Z"/>
  </g>
  <g>
    <g class="st2">
      <g class="st2">
        <path class="st1" d="M353.03,135.72c0,17.62-13.64,29.42-33.56,29.42h-51.03V57.88h48.88c19.46,0,32.33,11.34,32.33,28.35,0,9.81-4.29,17.62-12.57,23.29,9.81,5.21,15.94,14.86,15.94,26.2h0ZM311.2,77.34h-17.62v24.21h17.62c8.58,0,13.94-4.75,13.94-12.1s-5.21-12.11-13.94-12.11ZM312.73,145.68c9.5,0,15.02-4.75,15.02-12.72s-5.52-12.57-15.02-12.57h-19.15v25.28h19.15Z"/>
      </g>
    </g>
    <g class="st2">
      <g class="st2">
        <path class="st1" d="M450.33,57.88v24.21h-31.26v83.05h-26.36v-83.05h-31.11v-24.21h88.73Z"/>
      </g>
    </g>
    <g class="st2">
      <g class="st2">
        <path class="st1" d="M533.84,57.88h25.28v107.26h-21.45l-47.65-63.28v63.28h-25.28V57.88h21.3l47.81,63.44v-63.44h-.01Z"/>
      </g>
    </g>
  </g>
  <g class="st2">
    <g class="st2">
      <g class="st2">
        <path class="st0" d="M292.68,211.46h-4.95c-.98,0-1.69-.38-2.13-1.14l-7.96-11.49c-.27-.39-.56-.68-.88-.85s-.79-.26-1.42-.26h-3.08v13.74h-5.54v-34.12h10.05c2.24,0,4.17.23,5.79.69s2.95,1.11,3.99,1.96c1.04.84,1.81,1.86,2.31,3.04s.75,2.5.75,3.96c0,1.18-.18,2.29-.53,3.32s-.87,1.96-1.54,2.8-1.5,1.56-2.48,2.18-2.09,1.1-3.34,1.45c.68.41,1.26.99,1.75,1.73l9.22,13.01v-.02ZM276.62,193.69c1.26,0,2.37-.15,3.32-.46.95-.31,1.74-.74,2.37-1.29s1.11-1.21,1.42-1.98c.32-.77.47-1.62.47-2.55,0-1.86-.62-3.29-1.85-4.27-1.23-.98-3.1-1.47-5.59-1.47h-4.5v12.01h4.36Z"/>
        <path class="st0" d="M297.99,199.78c.06,1.37.28,2.56.64,3.57.36,1,.85,1.84,1.46,2.5s1.33,1.16,2.18,1.48c.84.32,1.79.48,2.83.48s1.86-.11,2.58-.34c.73-.23,1.36-.48,1.9-.76s1-.53,1.38-.76.73-.34,1.04-.34c.41,0,.73.16.95.47l1.45,1.87c-.6.71-1.28,1.31-2.04,1.8s-1.56.89-2.42,1.2c-.85.31-1.73.53-2.63.66s-1.78.2-2.63.2c-1.67,0-3.23-.28-4.66-.84s-2.67-1.39-3.72-2.48-1.87-2.44-2.46-4.05-.89-3.47-.89-5.57c0-1.67.26-3.24.79-4.69s1.29-2.72,2.27-3.79,2.19-1.92,3.6-2.55c1.41-.62,3.01-.94,4.8-.94,1.48,0,2.86.24,4.12.72s2.35,1.19,3.27,2.12,1.63,2.07,2.14,3.42c.51,1.35.77,2.89.77,4.61,0,.79-.09,1.32-.26,1.59-.17.27-.49.4-.95.4h-15.52v.02ZM310.14,196.65c0-.85-.12-1.65-.37-2.38-.25-.73-.6-1.38-1.08-1.92-.47-.54-1.06-.97-1.77-1.28-.7-.31-1.51-.46-2.43-.46-1.85,0-3.3.53-4.36,1.59s-1.73,2.54-2.01,4.45h12.02Z"/>
        <path class="st0" d="M318.86,190.65c2.73-2.54,5.99-3.81,9.76-3.81,1.39,0,2.63.22,3.71.68,1.08.45,1.99,1.09,2.72,1.91s1.29,1.8,1.68,2.93c.39,1.13.58,2.38.58,3.76v15.36h-2.27c-.49,0-.86-.08-1.11-.23s-.47-.45-.64-.91l-.5-1.97c-.62.55-1.22,1.05-1.83,1.48-.6.43-1.22.8-1.86,1.1s-1.33.53-2.06.68-1.54.22-2.43.22c-.98,0-1.89-.13-2.74-.4-.84-.27-1.58-.68-2.19-1.22s-1.1-1.22-1.46-2.03-.53-1.75-.53-2.84c0-.93.25-1.84.75-2.72s1.32-1.68,2.46-2.38c1.14-.7,2.65-1.28,4.53-1.74,1.87-.46,4.18-.72,6.93-.78v-1.61c0-1.74-.37-3.03-1.11-3.88s-1.83-1.28-3.27-1.28c-.98,0-1.8.12-2.46.37-.66.24-1.24.51-1.73.79-.49.29-.92.55-1.3.79-.38.25-.78.37-1.21.37-.35,0-.64-.09-.89-.27-.25-.18-.45-.41-.6-.68l-.92-1.66v-.03ZM332.37,200.89c-1.82.06-3.35.21-4.6.44s-2.26.52-3.03.88-1.33.78-1.67,1.27c-.34.49-.51,1.03-.51,1.61s.09,1.05.27,1.46c.18.4.43.73.76,1,.32.26.7.45,1.14.57s.91.18,1.43.18c1.33,0,2.47-.25,3.42-.75s1.88-1.22,2.78-2.17v-4.48h.01Z"/>
        <path class="st0" d="M348.46,176.39v35.07h-5.09v-35.07h5.09Z"/>
        <path class="st0" d="M388.81,206.98l-.02,4.48h-21.28v-34.12h21.28v4.48h-15.71v10.28h12.56v4.34h-12.56v10.54h15.73,0Z"/>
        <path class="st0" d="M407.93,191.67c-.13.22-.27.38-.43.47-.16.1-.36.14-.59.14-.27,0-.56-.08-.88-.25s-.69-.35-1.11-.56c-.43-.21-.93-.39-1.5-.56-.58-.17-1.25-.25-2.03-.25-.63,0-1.2.08-1.72.22-.51.15-.95.37-1.3.64-.36.28-.63.6-.82.97s-.29.77-.29,1.2c0,.57.17,1.04.52,1.42s.81.71,1.38.98c.57.28,1.22.53,1.94.75.73.22,1.47.46,2.23.71s1.5.55,2.23.88,1.37.74,1.94,1.22,1.03,1.07,1.38,1.75c.35.69.52,1.52.52,2.5,0,1.14-.21,2.19-.62,3.15-.41.96-1.01,1.8-1.8,2.51-.79.71-1.77,1.26-2.95,1.66-1.18.39-2.52.59-4.04.59-.84,0-1.65-.08-2.43-.22-.78-.15-1.52-.36-2.23-.62-.7-.26-1.36-.57-1.97-.94s-1.15-.76-1.62-1.19l1.18-1.94c.14-.24.32-.42.53-.56.21-.13.48-.2.79-.2.33,0,.66.11.98.32s.7.45,1.14.7c.43.25.96.49,1.58.7s1.38.32,2.3.32c.76,0,1.41-.09,1.97-.27.55-.18,1.01-.43,1.37-.75s.63-.68.81-1.08.26-.83.26-1.29c0-.62-.17-1.12-.52-1.52-.35-.39-.81-.73-1.39-1.02s-1.23-.54-1.97-.76-1.48-.46-2.24-.71c-.76-.25-1.5-.54-2.24-.88s-1.39-.75-1.97-1.27c-.58-.51-1.04-1.14-1.39-1.87s-.52-1.63-.52-2.69c0-.96.19-1.88.58-2.75s.96-1.63,1.71-2.3,1.67-1.19,2.77-1.58c1.1-.39,2.37-.58,3.8-.58,1.63,0,3.1.26,4.43.78s2.44,1.23,3.34,2.13l-1.14,1.85.03.05Z"/>
        <path class="st0" d="M421.94,211.84c-2.01,0-3.55-.56-4.63-1.7-1.08-1.13-1.62-2.72-1.62-4.77v-14.07h-2.65c-.29,0-.53-.09-.74-.27s-.31-.45-.31-.82v-2.06l3.91-.57,1.11-6.99c.08-.27.21-.49.4-.65.19-.17.44-.25.76-.25h2.61v7.94h6.71v3.67h-6.71v13.72c0,.87.21,1.53.64,1.99s1,.69,1.71.69c.39,0,.73-.05,1.02-.15s.53-.21.73-.33.38-.23.53-.33.3-.15.44-.15c.28,0,.51.16.69.47l1.52,2.49c-.79.7-1.72,1.23-2.8,1.6-1.08.37-2.18.56-3.32.56v-.02Z"/>
        <path class="st0" d="M430.92,190.65c2.73-2.54,5.99-3.81,9.76-3.81,1.39,0,2.63.22,3.71.68,1.08.45,1.99,1.09,2.72,1.91s1.29,1.8,1.68,2.93c.39,1.13.58,2.38.58,3.76v15.36h-2.27c-.49,0-.86-.08-1.11-.23s-.47-.45-.64-.91l-.5-1.97c-.62.55-1.22,1.05-1.82,1.48s-1.22.8-1.86,1.1-1.33.53-2.06.68-1.54.22-2.43.22c-.98,0-1.89-.13-2.74-.4-.85-.27-1.58-.68-2.19-1.22s-1.1-1.22-1.46-2.03-.53-1.75-.53-2.84c0-.93.25-1.84.75-2.72s1.32-1.68,2.46-2.38c1.14-.7,2.65-1.28,4.53-1.74,1.87-.46,4.18-.72,6.93-.78v-1.61c0-1.74-.37-3.03-1.11-3.88s-1.83-1.28-3.27-1.28c-.98,0-1.8.12-2.46.37-.66.24-1.24.51-1.73.79-.49.29-.92.55-1.3.79-.38.25-.78.37-1.21.37-.35,0-.64-.09-.89-.27s-.45-.41-.6-.68l-.92-1.66-.02-.03ZM444.42,200.89c-1.82.06-3.35.21-4.6.44s-2.26.52-3.03.88-1.33.78-1.67,1.27c-.34.49-.51,1.03-.51,1.61s.09,1.05.27,1.46c.18.4.43.73.76,1,.32.26.7.45,1.14.57s.91.18,1.43.18c1.33,0,2.47-.25,3.42-.75s1.88-1.22,2.78-2.17v-4.48h.01Z"/>
        <path class="st0" d="M462.74,211.84c-2.01,0-3.55-.56-4.63-1.7-1.08-1.13-1.62-2.72-1.62-4.77v-14.07h-2.65c-.29,0-.53-.09-.74-.27s-.31-.45-.31-.82v-2.06l3.91-.57,1.11-6.99c.08-.27.21-.49.4-.65.19-.17.44-.25.76-.25h2.61v7.94h6.71v3.67h-6.71v13.72c0,.87.21,1.53.64,1.99s1,.69,1.71.69c.39,0,.73-.05,1.02-.15s.53-.21.73-.33.38-.23.53-.33.3-.15.44-.15c.28,0,.51.16.69.47l1.52,2.49c-.79.7-1.72,1.23-2.8,1.6-1.08.37-2.18.56-3.32.56v-.02Z"/>
        <path class="st0" d="M475.84,199.78c.06,1.37.28,2.56.64,3.57.36,1,.85,1.84,1.46,2.5s1.33,1.16,2.18,1.48,1.79.48,2.83.48,1.86-.11,2.58-.34c.73-.23,1.36-.48,1.9-.76s1-.53,1.37-.76.73-.34,1.04-.34c.41,0,.73.16.95.47l1.45,1.87c-.6.71-1.28,1.31-2.04,1.8s-1.56.89-2.42,1.2c-.85.31-1.73.53-2.63.66s-1.78.2-2.63.2c-1.67,0-3.23-.28-4.66-.84s-2.67-1.39-3.72-2.48-1.87-2.44-2.46-4.05-.89-3.47-.89-5.57c0-1.67.26-3.24.79-4.69s1.29-2.72,2.28-3.79c.99-1.07,2.19-1.92,3.6-2.55,1.41-.62,3.01-.94,4.8-.94,1.48,0,2.86.24,4.12.72s2.35,1.19,3.27,2.12,1.63,2.07,2.14,3.42c.51,1.35.77,2.89.77,4.61,0,.79-.09,1.32-.26,1.59-.17.27-.49.4-.95.4h-15.52v.02ZM488,196.65c0-.85-.12-1.65-.37-2.38-.25-.73-.6-1.38-1.08-1.92s-1.06-.97-1.77-1.28c-.7-.31-1.51-.46-2.43-.46-1.85,0-3.3.53-4.36,1.59s-1.73,2.54-2.01,4.45h12.02Z"/>
        <path class="st0" d="M527.9,183.17c-.17.29-.36.49-.54.63-.19.13-.43.2-.71.2-.3,0-.64-.13-1.01-.38s-.83-.53-1.37-.84-1.19-.59-1.93-.85c-.74-.26-1.63-.39-2.65-.39-.95,0-1.78.12-2.5.36s-1.32.57-1.81,1-.86.93-1.1,1.5c-.25.58-.37,1.21-.37,1.88,0,.87.23,1.59.69,2.17s1.06,1.07,1.81,1.48c.75.41,1.61.77,2.57,1.08s1.95.64,2.95.98c1,.35,1.99.74,2.95,1.19.96.44,1.82,1,2.57,1.68s1.35,1.51,1.81,2.49c.46.98.69,2.17.69,3.58,0,1.52-.26,2.94-.78,4.27s-1.28,2.48-2.26,3.47c-.99.99-2.2,1.77-3.65,2.33s-3.09.85-4.94.85c-1.09,0-2.15-.11-3.19-.32-1.03-.21-2.02-.51-2.96-.9s-1.82-.86-2.64-1.41-1.56-1.17-2.2-1.85l1.61-2.65c.14-.22.32-.39.54-.52.22-.12.47-.19.74-.19.36,0,.77.17,1.21.51s.98.71,1.6,1.11,1.38.78,2.26,1.11c.88.34,1.94.51,3.17.51,2.01,0,3.56-.49,4.66-1.47s1.65-2.33,1.65-4.05c0-.96-.23-1.75-.69-2.36s-1.06-1.12-1.81-1.53-1.61-.76-2.57-1.04-1.94-.59-2.94-.91-1.97-.7-2.94-1.14c-.96-.44-1.82-1-2.57-1.71s-1.35-1.57-1.81-2.61-.69-2.33-.69-3.88c0-1.23.24-2.42.72-3.58.48-1.15,1.19-2.18,2.11-3.07.92-.89,2.07-1.61,3.42-2.14s2.91-.8,4.64-.8c1.96,0,3.75.31,5.39.92,1.63.62,3.04,1.49,4.23,2.63l-1.35,2.65h0Z"/>
        <path class="st0" d="M538.56,199.78c.06,1.37.28,2.56.64,3.57.36,1,.85,1.84,1.46,2.5.61.66,1.33,1.16,2.18,1.48s1.79.48,2.83.48,1.86-.11,2.58-.34c.73-.23,1.36-.48,1.9-.76.54-.28,1-.53,1.37-.76s.73-.34,1.04-.34c.41,0,.73.16.95.47l1.45,1.87c-.6.71-1.28,1.31-2.04,1.8-.76.49-1.56.89-2.42,1.2-.85.31-1.73.53-2.63.66s-1.78.2-2.63.2c-1.67,0-3.23-.28-4.66-.84s-2.67-1.39-3.72-2.48-1.87-2.44-2.46-4.05-.89-3.47-.89-5.57c0-1.67.26-3.24.79-4.69s1.29-2.72,2.28-3.79c.99-1.07,2.19-1.92,3.6-2.55,1.41-.62,3.01-.94,4.8-.94,1.48,0,2.86.24,4.12.72s2.35,1.19,3.27,2.12,1.63,2.07,2.14,3.42c.51,1.35.77,2.89.77,4.61,0,.79-.09,1.32-.26,1.59-.17.27-.49.4-.95.4h-15.52v.02ZM550.72,196.65c0-.85-.12-1.65-.37-2.38-.25-.73-.6-1.38-1.08-1.92s-1.06-.97-1.77-1.28c-.7-.31-1.51-.46-2.43-.46-1.85,0-3.3.53-4.36,1.59s-1.73,2.54-2.01,4.45h12.02Z"/>
        <path class="st0" d="M564.84,191.77c.76-1.53,1.67-2.74,2.75-3.61,1.07-.88,2.36-1.31,3.86-1.31.52,0,1.01.06,1.47.18.46.12.87.29,1.23.53l-.36,3.84c-.06.27-.16.46-.3.56-.13.1-.31.15-.53.15-.24,0-.58-.04-1.02-.13-.44-.09-.91-.13-1.4-.13-.71,0-1.34.1-1.88.31-.54.21-1.04.51-1.47.9-.43.4-.82.88-1.15,1.45-.33.57-.64,1.22-.92,1.94v15.02h-5.09v-24.17h2.96c.54,0,.91.1,1.11.3.21.2.35.54.43,1.03l.31,3.15h0Z"/>
        <path class="st0" d="M598.79,187.29l-9.71,24.17h-4.6l-9.71-24.17h4.19c.39,0,.72.1.98.3s.43.43.51.7l5.36,14.07c.22.66.42,1.32.59,1.97.17.65.32,1.3.45,1.97.13-.66.28-1.31.46-1.96.18-.64.38-1.3.6-1.98l5.45-14.07c.09-.29.27-.52.52-.71s.56-.29.92-.29h3.99Z"/>
        <path class="st0" d="M608.43,179.99c0,.46-.09.89-.27,1.3s-.43.77-.75,1.08-.68.55-1.1.73-.86.27-1.34.27-.89-.09-1.29-.27c-.4-.18-.75-.43-1.05-.73-.3-.31-.54-.67-.72-1.08s-.27-.85-.27-1.3.09-.92.27-1.33.42-.77.72-1.08.65-.55,1.05-.73c.4-.18.83-.27,1.29-.27s.92.09,1.34.27c.42.18.79.43,1.1.73.32.31.56.67.75,1.08.18.41.27.85.27,1.33ZM607.58,187.29v24.17h-5.09v-24.17h5.09Z"/>
        <path class="st0" d="M631.09,192.03c-.16.21-.31.36-.45.47s-.35.17-.62.17-.55-.09-.84-.28c-.29-.19-.64-.4-1.04-.63-.4-.23-.89-.44-1.46-.63s-1.28-.29-2.13-.29c-1.11,0-2.07.2-2.9.59-.83.4-1.53.96-2.09,1.7s-.98,1.63-1.26,2.68-.41,2.23-.41,3.54.15,2.57.45,3.63.73,1.95,1.29,2.68,1.24,1.28,2.04,1.66,1.69.57,2.69.57,1.78-.12,2.39-.36c.62-.24,1.13-.5,1.54-.78.41-.29.76-.55,1.05-.78s.6-.36.94-.36c.41,0,.73.16.95.47l1.45,1.87c-.58.71-1.23,1.31-1.94,1.8s-1.46.89-2.25,1.2-1.61.53-2.46.66c-.85.13-1.71.2-2.58.2-1.5,0-2.9-.28-4.21-.84-1.3-.56-2.44-1.38-3.41-2.44s-1.74-2.37-2.3-3.91c-.56-1.54-.84-3.3-.84-5.27,0-1.78.25-3.44.76-4.96.51-1.53,1.24-2.84,2.22-3.95s2.18-1.97,3.61-2.6c1.44-.62,3.1-.94,4.98-.94,1.75,0,3.3.29,4.63.85s2.52,1.38,3.57,2.42l-1.35,1.85h-.02Z"/>
        <path class="st0" d="M640.02,199.78c.06,1.37.28,2.56.64,3.57.36,1,.85,1.84,1.46,2.5.61.66,1.33,1.16,2.18,1.48s1.79.48,2.83.48,1.86-.11,2.58-.34c.73-.23,1.36-.48,1.9-.76.54-.28,1-.53,1.37-.76s.73-.34,1.04-.34c.41,0,.73.16.95.47l1.45,1.87c-.6.71-1.28,1.31-2.04,1.8-.76.49-1.56.89-2.42,1.2-.85.31-1.73.53-2.63.66s-1.78.2-2.63.2c-1.67,0-3.23-.28-4.66-.84s-2.67-1.39-3.72-2.48-1.87-2.44-2.46-4.05-.89-3.47-.89-5.57c0-1.67.26-3.24.79-4.69s1.29-2.72,2.28-3.79c.99-1.07,2.19-1.92,3.6-2.55,1.41-.62,3.01-.94,4.8-.94,1.48,0,2.86.24,4.12.72s2.35,1.19,3.27,2.12,1.63,2.07,2.14,3.42c.51,1.35.77,2.89.77,4.61,0,.79-.09,1.32-.26,1.59-.17.27-.49.4-.95.4h-15.52v.02ZM652.18,196.65c0-.85-.12-1.65-.37-2.38-.25-.73-.6-1.38-1.08-1.92s-1.06-.97-1.77-1.28c-.7-.31-1.51-.46-2.43-.46-1.85,0-3.3.53-4.36,1.59s-1.73,2.54-2.01,4.45h12.02Z"/>
        <path class="st0" d="M675.92,191.67c-.13.22-.27.38-.43.47-.16.1-.36.14-.59.14-.27,0-.56-.08-.88-.25s-.69-.35-1.11-.56c-.43-.21-.93-.39-1.5-.56-.58-.17-1.25-.25-2.03-.25-.63,0-1.2.08-1.72.22-.51.15-.95.37-1.3.64-.36.28-.63.6-.82.97s-.29.77-.29,1.2c0,.57.17,1.04.52,1.42s.81.71,1.38.98c.57.28,1.22.53,1.94.75.73.22,1.47.46,2.23.71s1.5.55,2.23.88,1.37.74,1.94,1.22,1.03,1.07,1.38,1.75c.35.69.52,1.52.52,2.5,0,1.14-.21,2.19-.62,3.15-.41.96-1.01,1.8-1.8,2.51-.79.71-1.77,1.26-2.95,1.66-1.18.39-2.52.59-4.04.59-.84,0-1.65-.08-2.43-.22-.78-.15-1.52-.36-2.23-.62-.7-.26-1.36-.57-1.97-.94s-1.15-.76-1.62-1.19l1.18-1.94c.14-.24.32-.42.53-.56.21-.13.48-.2.79-.2.33,0,.66.11.98.32s.7.45,1.14.7c.43.25.96.49,1.58.7s1.38.32,2.3.32c.76,0,1.41-.09,1.97-.27.55-.18,1.01-.43,1.37-.75s.63-.68.81-1.08.26-.83.26-1.29c0-.62-.17-1.12-.52-1.52-.35-.39-.81-.73-1.39-1.02-.58-.29-1.23-.54-1.97-.76s-1.48-.46-2.24-.71-1.5-.54-2.24-.88-1.39-.75-1.97-1.27c-.58-.51-1.04-1.14-1.39-1.87s-.52-1.63-.52-2.69c0-.96.19-1.88.58-2.75s.96-1.63,1.71-2.3,1.67-1.19,2.77-1.58c1.1-.39,2.37-.58,3.8-.58,1.63,0,3.1.26,4.43.78s2.44,1.23,3.34,2.13l-1.14,1.85.03.05Z"/>
      </g>
    </g>
  </g>
</svg>