<?xml version="1.0" encoding="UTF-8"?>
<svg id="Layer_1" xmlns="http://www.w3.org/2000/svg" version="1.1" viewBox="0 0 733.33 211.86">
  <!-- Generator: Adobe Illustrator 29.8.3, SVG Export Plug-In . SVG Version: 2.1.1 Build 3)  -->
  <defs>
    <style>
      .st0, .st1 {
        fill: #1e5685;
      }

      .st2, .st3, .st4, .st1, .st5 {
        isolation: isolate;
      }

      .st2, .st1, .st5 {
        font-family: Gogh-ExtraBold, Gogh;
        font-size: 132.44px;
        font-weight: 700;
      }

      .st2, .st6 {
        fill: #0d3157;
      }

      .st4 {
        fill: #7b7b7b;
        font-family: Lato-Semibold, Lato;
        font-size: 47.39px;
        font-weight: 600;
      }

      .st7, .st5 {
        fill: #337daf;
      }
    </style>
  </defs>
  <g>
    <path class="st6" d="M109.02,210.31c.95-3.96,9.86-18.61,12.39-23.01,10.3.83,28.62.27,39.56.28l79.85-.18c3.11,5.43,10.23,18.59,13.5,23.06-16.45.24-33.24-.13-49.76-.14h-95.54Z"/>
    <path class="st6" d="M83.04,87.54c3.1,3.25,11.38,17.24,13.79,21.58l-40.54,68.16c-5.82,9.75-13.67,24.15-20.08,32.92-7,.75-19.47.42-26.67.11,3.44-5.97,7.54-12.2,11.12-18.18l26.69-44.91c11.99-20.08,23.18-39.87,35.68-59.68h.01Z"/>
    <path class="st6" d="M132.16,4.81c6.5,11.61,13.97,23.43,20.8,34.94l51.95,87.45c-7.55.27-18.95.28-26.45-.07-11.18-19.95-24.31-40.85-36.2-60.5-7.56-12.5-15.66-27.34-23.48-39.34,3.5-6.5,9.26-16.15,13.37-22.48h0Z"/>
    <path class="st7" d="M139.71,156.61c27.34-.13,55.11.23,82.35-.11,3.14,4.88,11.18,17.97,13.6,23.1-36.09,0-73.85.49-109.81-.04,4.57-6.75,9.7-15.85,13.85-22.96h0Z"/>
    <path class="st7" d="M101.69,117.25c3.3,5.59,9.54,16.76,13.36,21.53-4.97,8.78-10.64,18.06-15.79,26.83-8.64,14.71-17.35,30.12-26.4,44.53-8.59.48-17.62-.14-26.38.04,8.1-14.46,16.64-28.27,25.22-42.45,9.82-16.23,19.63-34.82,29.99-50.48Z"/>
    <path class="st7" d="M101.31,57.58c2.24-5.48,9.4-16.7,12.8-22.28,12.18,20.08,24.23,40.23,36.15,60.46,4.41,7.46,14.4,25.27,19.19,31.22-9.01.5-18.08-.07-27.14.05-2.1-3.35-4.23-6.93-6.19-10.37-11.28-19.78-23.98-39.07-34.81-59.09h0Z"/>
    <path class="st0" d="M114.13,156.87c7.52-.56,17.84-.27,25.58-.26-4.16,7.11-9.29,16.2-13.85,22.96-1.22,2.07-3.49,5.71-4.45,7.73-2.53,4.4-11.44,19.05-12.39,23.01l-26.59-.04c10.19-16.47,22.61-36.63,31.71-53.39h0Z"/>
    <path class="st0" d="M96.17,65.22c2.74,5.83,6.9,11.61,10.14,17.23,6.72,11.64,14.83,23.82,21.11,35.63-1.56,3.78-4.16,6.83-6.27,10.25-2.09,3.38-4.12,6.99-6.1,10.44-3.82-4.77-10.06-15.93-13.36-21.53-1.04-2.9-3.24-4.91-4.86-8.12-2.41-4.34-10.69-18.33-13.79-21.58,3.34-5.67,9.8-17.79,13.14-22.32h-.01Z"/>
    <path class="st0" d="M169.45,126.99c2.86.1,6.36-.01,9.01.14,7.5.35,18.89.34,26.45.07,4.32,7.27,8.25,13.77,11.83,21.44-5.61-.35-14.17-.13-19.92-.13l-41.72.26c-4.14-7.31-8.4-14.55-12.79-21.72,9.06-.13,18.13.45,27.14-.05h0Z"/>
  </g>
  <g class="st3">
    <text class="st1" transform="translate(263.23 163.78)"><tspan x="0" y="0">B</tspan></text>
    <text class="st5" transform="translate(350.11 163.78)"><tspan x="0" y="0">T</tspan></text>
    <text class="st2" transform="translate(432.89 163.78)"><tspan x="0" y="0">N</tspan></text>
  </g>
  <g class="st3">
    <text class="st4" transform="translate(268.32 211.86)"><tspan x="0" y="0">Real Estate Services</tspan></text>
  </g>
  <g>
    <g>
      <path class="st6" d="M109.79-130.94c.95-3.96,9.86-18.61,12.39-23.01,10.3.83,28.62.27,39.56.28l79.85-.18c3.11,5.43,10.23,18.59,13.5,23.06-16.45.24-33.24-.13-49.76-.14h-95.54Z"/>
      <path class="st6" d="M83.81-253.71c3.1,3.25,11.38,17.24,13.79,21.58l-40.54,68.16c-5.82,9.75-13.67,24.15-20.08,32.92-7,.75-19.47.42-26.67.11,3.44-5.97,7.54-12.2,11.12-18.18l26.69-44.91c11.99-20.08,23.18-39.87,35.68-59.68h.01Z"/>
      <path class="st6" d="M132.93-336.44c6.5,11.61,13.97,23.43,20.8,34.94l51.95,87.45c-7.55.27-18.95.28-26.45-.07-11.18-19.95-24.31-40.85-36.2-60.5-7.56-12.5-15.66-27.34-23.48-39.34,3.5-6.5,9.26-16.15,13.37-22.48h0Z"/>
      <path class="st7" d="M140.48-184.64c27.34-.13,55.11.23,82.35-.11,3.14,4.88,11.18,17.97,13.6,23.1-36.09,0-73.85.49-109.81-.04,4.57-6.75,9.7-15.85,13.85-22.96h0Z"/>
      <path class="st7" d="M102.46-224c3.3,5.59,9.54,16.76,13.36,21.53-4.97,8.78-10.64,18.06-15.79,26.83-8.64,14.71-17.35,30.12-26.4,44.53-8.59.48-17.62-.14-26.38.04,8.1-14.46,16.64-28.27,25.22-42.45,9.82-16.23,19.63-34.82,29.99-50.48Z"/>
      <path class="st7" d="M102.09-283.67c2.24-5.48,9.4-16.7,12.8-22.28,12.18,20.08,24.23,40.23,36.15,60.46,4.41,7.46,14.4,25.27,19.19,31.22-9.01.5-18.08-.07-27.14.05-2.1-3.35-4.23-6.93-6.19-10.37-11.28-19.78-23.98-39.07-34.81-59.09h0Z"/>
      <path class="st0" d="M114.91-184.38c7.52-.56,17.84-.27,25.58-.26-4.16,7.11-9.29,16.2-13.85,22.96-1.22,2.07-3.49,5.71-4.45,7.73-2.53,4.4-11.44,19.05-12.39,23.01l-26.59-.04c10.19-16.47,22.61-36.63,31.71-53.39h-.01Z"/>
      <path class="st0" d="M96.95-276.03c2.74,5.83,6.9,11.61,10.14,17.23,6.72,11.64,14.83,23.82,21.11,35.63-1.56,3.78-4.16,6.83-6.27,10.25-2.09,3.38-4.12,6.99-6.1,10.44-3.82-4.77-10.06-15.93-13.36-21.53-1.04-2.9-3.24-4.91-4.86-8.12-2.41-4.34-10.69-18.33-13.79-21.58,3.34-5.67,9.8-17.79,13.14-22.32h-.01Z"/>
      <path class="st0" d="M170.22-214.26c2.86.1,6.36,0,9.01.14,7.5.35,18.89.34,26.45.07,4.32,7.27,8.25,13.77,11.83,21.44-5.61-.35-14.17-.13-19.92-.13l-41.72.26c-4.14-7.31-8.4-14.55-12.79-21.72,9.06-.13,18.13.45,27.14-.05h0Z"/>
    </g>
    <g class="st3">
      <text class="st5" transform="translate(264 -177.47)"><tspan x="0" y="0">B</tspan></text>
      <text class="st1" transform="translate(350.88 -177.47)"><tspan x="0" y="0">T</tspan></text>
      <text class="st2" transform="translate(433.66 -177.47)"><tspan x="0" y="0">N</tspan></text>
    </g>
    <g class="st3">
      <text class="st4" transform="translate(269.1 -129.39)"><tspan x="0" y="0">Real Estate Services</tspan></text>
    </g>
  </g>
</svg>